<svg width="443" height="991" viewBox="0 0 443 991" fill="none" xmlns="http://www.w3.org/2000/svg">
<circle cx="257.425" cy="405.532" r="241.851" fill="#D9D9D9" fill-opacity="0.3"/>
<path d="M11.9173 650.645C2.67701 643.377 -2.22008 627.517 0.979372 615.219L89.8845 273.497C93.0839 261.199 103.168 257.122 112.409 264.389L539.384 600.213C548.625 607.48 553.522 623.341 550.322 635.639L461.417 977.361C458.218 989.658 448.133 993.736 438.893 986.468L11.9173 650.645Z" fill="#FFC300"/>
<path d="M11.9173 650.645C2.67701 643.377 -2.22008 627.517 0.979372 615.219L89.8845 273.497C93.0839 261.199 103.168 257.122 112.409 264.389L539.384 600.213C548.625 607.48 553.522 623.341 550.322 635.639L461.417 977.361C458.218 989.658 448.133 993.736 438.893 986.468L11.9173 650.645Z" fill="url(#paint0_radial_105_5)"/>
<path d="M416.38 597.349C422.139 575.213 440.291 567.873 456.924 580.955C473.556 594.037 482.371 622.586 476.612 644.722C470.853 666.858 452.701 674.198 436.068 661.116C419.436 648.034 410.621 619.485 416.38 597.349Z" fill="#3A3A3A"/>
<path d="M452.742 625.948C458.501 603.813 476.653 596.473 493.286 609.555C509.918 622.636 518.733 651.186 512.974 673.322C507.215 695.457 489.063 702.797 472.43 689.715C455.798 676.633 446.983 648.084 452.742 625.948Z" fill="#FFC300"/>
<path d="M112.686 433.236C114.179 427.497 118.885 425.594 123.197 428.986L168.706 464.779C173.018 468.171 175.303 475.572 173.81 481.311L164.077 518.72C162.584 524.458 157.878 526.361 153.566 522.97L108.058 487.177C103.746 483.785 101.46 476.383 102.953 470.645L112.686 433.236Z" fill="url(#paint1_linear_105_5)"/>
<path d="M61.4757 636.351L65.8868 619.396L71.2922 623.647C72.2217 624.378 72.982 625.17 73.5731 626.023C74.1814 626.869 74.5861 627.789 74.7874 628.785C74.993 629.763 74.9481 630.82 74.6527 631.955C74.4543 632.718 74.1511 633.235 73.7431 633.506C73.3351 633.777 72.8941 633.91 72.42 633.904C71.9503 633.882 71.5215 633.82 71.1336 633.719L71.0213 632.559C71.7128 633.144 72.2733 633.82 72.7028 634.586C73.1494 635.346 73.4376 636.154 73.5674 637.011C73.7142 637.862 73.6752 638.719 73.4504 639.584C73.1418 640.77 72.6718 641.574 72.0404 641.996C71.4262 642.411 70.7141 642.525 69.904 642.337C69.0984 642.132 68.2626 641.689 67.3967 641.008L61.4757 636.351ZM65.3966 635.607L67.9942 637.65C68.3125 637.9 68.6208 638.071 68.9191 638.163C69.2218 638.238 69.4956 638.188 69.7405 638.013C69.9898 637.821 70.1828 637.463 70.3194 636.937C70.4208 636.547 70.4537 636.185 70.4179 635.851C70.3822 635.517 70.2928 635.212 70.1498 634.936C70.024 634.653 69.8616 634.393 69.6628 634.155C69.464 633.917 69.2436 633.703 69.0017 633.512L66.4613 631.514L65.3966 635.607ZM67.2483 628.489L69.7314 630.442C69.9478 630.613 70.1648 630.722 70.3822 630.77C70.6041 630.802 70.8032 630.744 70.9795 630.597C71.1686 630.46 71.3138 630.197 71.4152 629.807C71.596 629.112 71.5794 628.527 71.3654 628.053C71.1558 627.561 70.8473 627.155 70.4398 626.835L68.1478 625.032L67.2483 628.489Z" fill="white"/>
<path d="M77.8198 649.665C77.234 649.204 76.7 648.692 76.2176 648.129C75.7435 647.593 75.351 647.009 75.04 646.376C74.7462 645.737 74.5638 645.052 74.4928 644.323C74.4263 643.577 74.5032 642.78 74.7237 641.932C74.9309 641.136 75.2326 640.536 75.6289 640.133C76.0379 639.74 76.5389 639.583 77.132 639.662C77.7251 639.741 78.41 640.085 79.1868 640.696C79.6197 641.037 80.0245 641.427 80.4011 641.866C80.7777 642.305 81.0987 642.751 81.3642 643.205C81.6423 643.669 81.846 644.094 81.9753 644.482L81.6137 646.402C81.412 645.999 81.1483 645.597 80.8226 645.198C80.4969 644.799 80.1303 644.439 79.7229 644.119C79.0989 643.628 78.6075 643.395 78.2485 643.418C77.9066 643.435 77.6673 643.707 77.5306 644.232C77.4469 644.554 77.442 644.897 77.5159 645.261C77.5898 645.626 77.7238 645.966 77.9177 646.282C78.1244 646.608 78.355 646.871 78.6097 647.071C79.2591 647.582 79.7266 647.878 80.0121 647.96C80.3104 648.051 80.5058 647.919 80.5984 647.563L81.8285 642.835C82.0313 642.056 81.9858 641.346 81.692 640.707C81.4153 640.061 80.9331 639.467 80.2455 638.926C79.6853 638.486 79.0833 638.175 78.4398 637.996C77.8134 637.809 77.2734 637.762 76.8199 637.855L77.6929 634.499C78.0945 634.489 78.6699 634.635 79.4193 634.939C80.1813 635.252 80.9953 635.749 81.8612 636.431C82.1668 636.671 82.4954 636.97 82.847 637.328C83.1987 637.687 83.5349 638.104 83.8557 638.581C84.1808 639.041 84.4521 639.56 84.6696 640.14C84.8997 640.729 85.042 641.362 85.0963 642.037C85.1506 642.713 85.0764 643.44 84.8736 644.22L83.2738 650.28C83.0843 651.009 82.7453 651.457 82.257 651.624C81.7731 651.774 81.1545 651.675 80.4013 651.328C79.6608 650.99 78.8003 650.436 77.8198 649.665Z" fill="white"/>
<path d="M88.1868 643.182C88.4729 643.203 88.8353 643.283 89.2741 643.424C89.7174 643.549 90.1922 643.728 90.6986 643.963C91.205 644.198 91.7048 644.458 92.198 644.744C92.7039 645.04 93.1606 645.348 93.5681 645.669C94.4339 646.35 95.1328 647.083 95.6646 647.869C96.2009 648.638 96.5422 649.478 96.6886 650.389C96.8477 651.31 96.7796 652.339 96.4842 653.474L94.2356 662.117L91.3897 659.879L93.4399 651.998C93.5236 651.676 93.5626 651.35 93.5567 651.019C93.5636 650.697 93.5213 650.388 93.4297 650.092C93.3425 649.778 93.1912 649.476 92.9757 649.184C92.7646 648.875 92.4872 648.585 92.1434 648.315C91.8505 648.084 91.5444 647.905 91.2251 647.776C90.9102 647.631 90.6631 647.548 90.4839 647.53L87.9708 657.19L85.1248 654.951L88.1868 643.182Z" fill="white"/>
<path d="M100.825 658.756L105.879 655.78L109.336 658.499L102.004 661.827L100.825 658.756ZM99.5908 666.329L96.764 664.106L101.374 646.388L104.239 648.641L99.5908 666.329ZM103.413 658.801L106.238 671.557L102.628 668.718L100.72 659.776L103.413 658.801Z" fill="white"/>
<path d="M107.859 672.832L108.792 669.248L111.561 671.426L110.629 675.01L107.859 672.832Z" fill="white"/>
<path d="M124.236 675.301L121.987 683.944L119.142 681.706L121.192 673.826C121.275 673.504 121.314 673.177 121.309 672.846C121.315 672.525 121.273 672.216 121.182 671.919C121.094 671.606 120.943 671.303 120.728 671.011C120.516 670.702 120.239 670.412 119.895 670.142C119.602 669.912 119.315 669.747 119.034 669.648C118.77 669.543 118.549 669.481 118.369 669.462L115.856 679.122L113.01 676.884L116.072 665.114C116.358 665.135 116.721 665.216 117.16 665.357C117.603 665.481 118.078 665.66 118.584 665.895C119.091 666.13 119.59 666.391 120.084 666.677C120.589 666.972 121.046 667.281 121.454 667.601C122.319 668.282 123.006 669.006 123.512 669.771C124.035 670.53 124.358 671.355 124.479 672.246C124.612 673.148 124.531 674.166 124.236 675.301ZM121.902 670.741C122.416 670.594 122.997 670.571 123.646 670.673C124.298 670.757 124.961 670.952 125.634 671.256C126.31 671.544 126.916 671.898 127.451 672.318C128.317 672.999 129.003 673.723 129.509 674.488C130.033 675.247 130.355 676.072 130.476 676.963C130.61 677.865 130.529 678.883 130.233 680.019L127.985 688.661L125.139 686.423L127.189 678.543C127.273 678.221 127.312 677.894 127.306 677.563C127.313 677.242 127.271 676.933 127.179 676.636C127.092 676.323 126.94 676.02 126.725 675.728C126.514 675.419 126.236 675.129 125.893 674.859C125.6 674.629 125.311 674.473 125.025 674.391C124.757 674.302 124.524 674.283 124.327 674.332L121.902 670.741Z" fill="white"/>
<path d="M134.781 694.466C133.813 693.705 133.022 692.766 132.408 691.65C131.81 690.527 131.429 689.308 131.265 687.995C131.117 686.675 131.222 685.328 131.579 683.956C132.161 681.719 133.025 680.316 134.17 679.746C135.332 679.17 136.69 679.493 138.244 680.715C139.313 681.556 140.093 682.537 140.584 683.658C141.088 684.789 141.34 686.059 141.341 687.469C141.343 688.879 141.119 690.417 140.67 692.085L133.316 686.301L133.639 683.646L138.949 687.822L138.217 688.687C138.562 687.304 138.667 686.223 138.532 685.443C138.397 684.664 138.012 684.023 137.375 683.523C137.019 683.242 136.663 683.106 136.308 683.112C135.967 683.129 135.64 683.352 135.329 683.781C135.035 684.203 134.763 684.897 134.511 685.863C134.194 687.084 134.166 688.194 134.427 689.196C134.7 690.207 135.321 691.094 136.289 691.855C136.645 692.135 137.009 692.36 137.379 692.528C137.766 692.69 138.133 692.815 138.478 692.903C138.823 692.991 139.12 693.06 139.367 693.112L138.52 696.366C137.996 696.259 137.427 696.057 136.815 695.759C136.21 695.488 135.532 695.057 134.781 694.466Z" fill="white"/>
<g filter="url(#filter0_i_105_5)">
<rect width="77.7647" height="60.1278" rx="8.25725" transform="matrix(0.786012 0.618211 -0.251786 0.967783 115.064 423.23)" fill="url(#paint2_linear_105_5)"/>
</g>
<path d="M109.754 443.315L130.539 459.663C133.255 455.319 139.839 447.146 144.451 449.204C145.845 451.192 148.86 456.774 149.764 463.191M104.901 461.969L125.686 478.316C123.283 487.554 127.719 499.176 130.238 503.832C136.026 505.673 142.853 498 145.542 493.934L166.095 510.099M169.793 495.887L149.24 479.721C148.915 476.672 149.006 470.299 151.975 469.21" stroke="url(#paint3_linear_105_5)" stroke-width="0.707764"/>
<path d="M188.829 513.614C189.109 515.98 189.007 521.193 186.357 523.114M194.625 514.06C195.007 517.757 194.691 526.2 190.377 530.389M199.902 513.918C200.361 518.869 199.806 530.402 193.916 536.927M205.321 514.782C206.008 520.747 205.48 534.828 197.867 543.433" stroke="#000814" stroke-width="2.59514" stroke-linecap="round" stroke-linejoin="round"/>
<g filter="url(#filter1_d_105_5)">
<path d="M92.5344 440.857C83.2941 433.59 78.397 417.729 81.5965 405.431L170.502 63.7095C173.701 51.4118 183.785 47.3342 193.026 54.6018L620.001 390.425C629.242 397.693 634.139 413.553 630.939 425.851L542.034 767.573C538.835 779.871 528.75 783.948 519.51 776.68L92.5344 440.857Z" fill="#000814"/>
<path d="M92.5344 440.857C83.2941 433.59 78.397 417.729 81.5965 405.431L170.502 63.7095C173.701 51.4118 183.785 47.3342 193.026 54.6018L620.001 390.425C629.242 397.693 634.139 413.553 630.939 425.851L542.034 767.573C538.835 779.871 528.75 783.948 519.51 776.68L92.5344 440.857Z" fill="url(#paint4_radial_105_5)"/>
<path d="M496.997 387.561C502.756 365.426 520.908 358.086 537.541 371.168C554.173 384.249 562.988 412.799 557.229 434.934C551.47 457.07 533.318 464.41 516.685 451.328C500.053 438.246 491.238 409.697 496.997 387.561Z" fill="#3A3A3A"/>
<path d="M533.359 416.161C539.118 394.025 557.27 386.685 573.903 399.767C590.535 412.849 599.35 441.398 593.591 463.534C587.832 485.67 569.68 493.009 553.047 479.928C536.415 466.846 527.6 438.296 533.359 416.161Z" fill="#000814"/>
<path d="M193.303 223.449C194.796 217.71 199.502 215.807 203.814 219.198L249.323 254.991C253.635 258.383 255.92 265.785 254.427 271.524L244.695 308.932C243.201 314.671 238.495 316.574 234.183 313.182L188.675 277.389C184.363 273.998 182.077 266.596 183.571 260.857L193.303 223.449Z" fill="url(#paint5_linear_105_5)"/>
<path d="M142.093 426.563L146.504 409.608L151.909 413.859C152.839 414.591 153.599 415.382 154.19 416.235C154.798 417.081 155.203 418.002 155.404 418.997C155.61 419.975 155.565 421.032 155.27 422.168C155.071 422.93 154.768 423.447 154.36 423.718C153.952 423.989 153.511 424.122 153.037 424.117C152.567 424.094 152.139 424.033 151.751 423.932L151.638 422.772C152.33 423.356 152.89 424.032 153.32 424.798C153.767 425.558 154.055 426.366 154.184 427.224C154.331 428.074 154.292 428.932 154.067 429.796C153.759 430.982 153.289 431.786 152.658 432.208C152.043 432.624 151.331 432.737 150.521 432.549C149.715 432.344 148.88 431.901 148.014 431.22L142.093 426.563ZM146.014 425.819L148.611 427.862C148.93 428.113 149.238 428.284 149.536 428.375C149.839 428.45 150.113 428.4 150.358 428.225C150.607 428.033 150.8 427.675 150.937 427.15C151.038 426.76 151.071 426.398 151.035 426.063C150.999 425.729 150.91 425.424 150.767 425.148C150.641 424.866 150.479 424.605 150.28 424.367C150.081 424.129 149.861 423.915 149.619 423.725L147.078 421.727L146.014 425.819ZM147.865 418.702L150.348 420.655C150.565 420.825 150.782 420.934 150.999 420.983C151.221 421.014 151.42 420.957 151.597 420.81C151.786 420.672 151.931 420.409 152.032 420.019C152.213 419.324 152.196 418.74 151.982 418.265C151.773 417.774 151.464 417.368 151.057 417.047L148.765 415.245L147.865 418.702Z" fill="white"/>
<path d="M158.437 439.877C157.851 439.417 157.317 438.905 156.835 438.342C156.361 437.805 155.968 437.221 155.657 436.589C155.363 435.949 155.181 435.265 155.11 434.535C155.043 433.789 155.12 432.992 155.341 432.145C155.548 431.348 155.85 430.748 156.246 430.346C156.655 429.953 157.156 429.796 157.749 429.874C158.342 429.953 159.027 430.298 159.804 430.909C160.237 431.249 160.642 431.639 161.018 432.078C161.395 432.517 161.716 432.964 161.981 433.417C162.259 433.881 162.463 434.307 162.592 434.694L162.231 436.615C162.029 436.211 161.765 435.81 161.44 435.41C161.114 435.011 160.747 434.652 160.34 434.331C159.716 433.84 159.225 433.607 158.866 433.631C158.524 433.648 158.284 433.919 158.148 434.444C158.064 434.766 158.059 435.109 158.133 435.474C158.207 435.838 158.341 436.178 158.535 436.494C158.741 436.82 158.972 437.083 159.227 437.283C159.876 437.794 160.344 438.09 160.629 438.172C160.927 438.264 161.123 438.132 161.215 437.776L162.446 433.048C162.648 432.268 162.603 431.559 162.309 430.919C162.032 430.273 161.55 429.679 160.863 429.139C160.302 428.698 159.7 428.388 159.057 428.208C158.43 428.022 157.891 427.975 157.437 428.067L158.31 424.712C158.712 424.701 159.287 424.847 160.036 425.151C160.798 425.465 161.612 425.962 162.478 426.643C162.784 426.883 163.113 427.182 163.464 427.541C163.816 427.899 164.152 428.316 164.473 428.793C164.798 429.253 165.069 429.773 165.287 430.352C165.517 430.941 165.659 431.574 165.713 432.249C165.768 432.925 165.693 433.653 165.491 434.432L163.891 440.492C163.701 441.221 163.362 441.669 162.874 441.836C162.39 441.986 161.772 441.888 161.018 441.54C160.278 441.203 159.417 440.648 158.437 439.877Z" fill="white"/>
<path d="M168.804 433.394C169.09 433.415 169.452 433.496 169.891 433.637C170.334 433.761 170.809 433.94 171.316 434.175C171.822 434.41 172.322 434.671 172.815 434.957C173.321 435.252 173.778 435.561 174.185 435.881C175.051 436.562 175.75 437.296 176.282 438.081C176.818 438.85 177.159 439.69 177.306 440.601C177.465 441.523 177.397 442.551 177.101 443.687L174.853 452.329L172.007 450.091L174.057 442.211C174.141 441.889 174.18 441.562 174.174 441.231C174.181 440.91 174.138 440.601 174.047 440.304C173.96 439.991 173.808 439.688 173.593 439.396C173.382 439.087 173.104 438.797 172.76 438.527C172.468 438.297 172.162 438.117 171.842 437.988C171.527 437.843 171.28 437.761 171.101 437.742L168.588 447.402L165.742 445.164L168.804 433.394Z" fill="white"/>
<path d="M181.442 448.968L186.496 445.992L189.953 448.711L182.622 452.04L181.442 448.968ZM180.208 456.541L177.381 454.318L181.991 436.6L184.856 438.854L180.208 456.541ZM184.03 449.014L186.855 461.769L183.245 458.93L181.337 449.989L184.03 449.014Z" fill="white"/>
<path d="M188.476 463.044L189.409 459.46L192.178 461.638L191.246 465.223L188.476 463.044Z" fill="white"/>
<path d="M204.853 465.514L202.605 474.157L199.759 471.918L201.809 464.038C201.893 463.716 201.931 463.389 201.926 463.058C201.933 462.737 201.89 462.428 201.799 462.131C201.711 461.818 201.56 461.515 201.345 461.223C201.134 460.914 200.856 460.625 200.512 460.354C200.219 460.124 199.932 459.959 199.651 459.861C199.387 459.755 199.166 459.693 198.986 459.675L196.473 469.334L193.627 467.096L196.689 455.326C196.975 455.347 197.338 455.428 197.777 455.569C198.22 455.693 198.695 455.873 199.201 456.108C199.708 456.343 200.207 456.603 200.701 456.889C201.207 457.185 201.663 457.493 202.071 457.813C202.937 458.494 203.623 459.218 204.129 459.984C204.653 460.742 204.975 461.567 205.096 462.459C205.229 463.36 205.149 464.378 204.853 465.514ZM202.519 460.953C203.033 460.806 203.614 460.783 204.263 460.885C204.916 460.97 205.578 461.164 206.251 461.469C206.928 461.756 207.533 462.11 208.068 462.531C208.934 463.212 209.62 463.935 210.127 464.701C210.65 465.459 210.972 466.285 211.093 467.176C211.227 468.077 211.146 469.095 210.851 470.231L208.602 478.874L205.756 476.635L207.806 468.755C207.89 468.433 207.929 468.107 207.923 467.775C207.93 467.454 207.888 467.145 207.796 466.849C207.709 466.535 207.558 466.232 207.342 465.94C207.131 465.631 206.854 465.342 206.51 465.071C206.217 464.841 205.928 464.685 205.642 464.603C205.374 464.515 205.141 464.495 204.944 464.544L202.519 460.953Z" fill="white"/>
<path d="M215.398 484.678C214.431 483.917 213.639 482.978 213.025 481.862C212.427 480.739 212.046 479.521 211.882 478.207C211.734 476.887 211.839 475.541 212.197 474.168C212.778 471.931 213.642 470.528 214.787 469.959C215.949 469.383 217.307 469.705 218.861 470.927C219.93 471.769 220.711 472.75 221.201 473.87C221.705 475.001 221.957 476.272 221.958 477.681C221.96 479.091 221.736 480.63 221.287 482.297L213.933 476.514L214.256 473.858L219.566 478.035L218.835 478.899C219.179 477.516 219.284 476.435 219.149 475.655C219.015 474.876 218.629 474.236 217.992 473.735C217.636 473.455 217.28 473.318 216.926 473.325C216.584 473.342 216.257 473.565 215.946 473.994C215.652 474.416 215.38 475.11 215.128 476.076C214.811 477.296 214.783 478.407 215.044 479.408C215.317 480.42 215.938 481.306 216.906 482.067C217.262 482.347 217.626 482.572 217.996 482.741C218.384 482.903 218.75 483.027 219.095 483.115C219.44 483.203 219.737 483.273 219.984 483.324L219.138 486.578C218.613 486.472 218.044 486.27 217.432 485.971C216.827 485.7 216.15 485.269 215.398 484.678Z" fill="white"/>
<g filter="url(#filter2_i_105_5)">
<rect width="77.7647" height="60.1278" rx="8.25725" transform="matrix(0.786012 0.618211 -0.251786 0.967783 195.681 213.442)" fill="url(#paint6_linear_105_5)"/>
</g>
<path d="M190.371 233.527L211.156 249.875C213.872 245.531 220.456 237.358 225.068 239.416C226.462 241.405 229.477 246.986 230.381 253.404M185.518 252.181L206.303 268.529C203.9 277.767 208.337 289.388 210.855 294.044C216.643 295.886 223.47 288.213 226.16 284.146L246.713 300.311M250.41 286.099L229.857 269.934C229.532 266.884 229.623 260.512 232.592 259.423" stroke="url(#paint7_linear_105_5)" stroke-width="0.707764"/>
<path d="M269.446 303.826C269.726 306.192 269.624 311.405 266.974 313.327M275.242 304.272C275.624 307.97 275.308 316.412 270.994 320.601M280.519 304.131C280.978 309.081 280.423 320.614 274.533 327.14M285.938 304.995C286.625 310.96 286.097 325.041 278.484 333.645" stroke="#FFC919" stroke-width="2.59514" stroke-linecap="round" stroke-linejoin="round"/>
</g>
<defs>
<filter id="filter0_i_105_5" x="101.677" y="426.842" width="72.7587" height="99.0412" filterUnits="userSpaceOnUse" color-interpolation-filters="sRGB">
<feFlood flood-opacity="0" result="BackgroundImageFix"/>
<feBlend mode="normal" in="SourceGraphic" in2="BackgroundImageFix" result="shape"/>
<feColorMatrix in="SourceAlpha" type="matrix" values="0 0 0 0 0 0 0 0 0 0 0 0 0 0 0 0 0 0 127 0" result="hardAlpha"/>
<feOffset dx="-0.707764" dy="-0.707764"/>
<feComposite in2="hardAlpha" operator="arithmetic" k2="-1" k3="1"/>
<feColorMatrix type="matrix" values="0 0 0 0 0 0 0 0 0 0 0 0 0 0 0 0 0 0 0.25 0"/>
<feBlend mode="normal" in2="shape" result="effect1_innerShadow_105_5"/>
</filter>
<filter id="filter1_d_105_5" x="7.32883" y="0.614321" width="697.878" height="875.859" filterUnits="userSpaceOnUse" color-interpolation-filters="sRGB">
<feFlood flood-opacity="0" result="BackgroundImageFix"/>
<feColorMatrix in="SourceAlpha" type="matrix" values="0 0 0 0 0 0 0 0 0 0 0 0 0 0 0 0 0 0 127 0" result="hardAlpha"/>
<feOffset dy="22.9026"/>
<feGaussianBlur stdDeviation="36.6441"/>
<feComposite in2="hardAlpha" operator="out"/>
<feColorMatrix type="matrix" values="0 0 0 0 0 0 0 0 0 0.0313726 0 0 0 0 0.0784314 0 0 0 0.4 0"/>
<feBlend mode="normal" in2="BackgroundImageFix" result="effect1_dropShadow_105_5"/>
<feBlend mode="normal" in="SourceGraphic" in2="effect1_dropShadow_105_5" result="shape"/>
</filter>
<filter id="filter2_i_105_5" x="182.294" y="217.055" width="72.7587" height="99.0412" filterUnits="userSpaceOnUse" color-interpolation-filters="sRGB">
<feFlood flood-opacity="0" result="BackgroundImageFix"/>
<feBlend mode="normal" in="SourceGraphic" in2="BackgroundImageFix" result="shape"/>
<feColorMatrix in="SourceAlpha" type="matrix" values="0 0 0 0 0 0 0 0 0 0 0 0 0 0 0 0 0 0 127 0" result="hardAlpha"/>
<feOffset dx="-0.707764" dy="-0.707764"/>
<feComposite in2="hardAlpha" operator="arithmetic" k2="-1" k3="1"/>
<feColorMatrix type="matrix" values="0 0 0 0 0 0 0 0 0 0 0 0 0 0 0 0 0 0 0.25 0"/>
<feBlend mode="normal" in2="shape" result="effect1_innerShadow_105_5"/>
</filter>
<radialGradient id="paint0_radial_105_5" cx="0" cy="0" r="1" gradientUnits="userSpaceOnUse" gradientTransform="translate(-17.1619 250.541) rotate(55.3033) scale(842.32 573.877)">
<stop stop-color="white" stop-opacity="0.3"/>
<stop offset="1" stop-color="white" stop-opacity="0"/>
</radialGradient>
<linearGradient id="paint1_linear_105_5" x1="0" y1="260.788" x2="681.74" y2="555.11" gradientUnits="userSpaceOnUse">
<stop stop-color="#ABABAB"/>
<stop offset="0.3125" stop-color="white"/>
<stop offset="0.630208" stop-color="#BDBDBD"/>
<stop offset="1" stop-color="#5E5E5E"/>
</linearGradient>
<linearGradient id="paint2_linear_105_5" x1="0" y1="0" x2="73.8166" y2="54.5219" gradientUnits="userSpaceOnUse">
<stop stop-color="#ABABAB"/>
<stop offset="0.3125" stop-color="white"/>
<stop offset="0.630208" stop-color="#BDBDBD"/>
<stop offset="1" stop-color="#5E5E5E"/>
</linearGradient>
<linearGradient id="paint3_linear_105_5" x1="116.445" y1="428.25" x2="175.771" y2="510.481" gradientUnits="userSpaceOnUse">
<stop stop-color="#7D7D7D"/>
<stop offset="0.494792" stop-color="white"/>
<stop offset="1" stop-color="#1C1C1C"/>
</linearGradient>
<radialGradient id="paint4_radial_105_5" cx="0" cy="0" r="1" gradientUnits="userSpaceOnUse" gradientTransform="translate(63.4551 40.7533) rotate(55.3033) scale(842.32 573.877)">
<stop stop-color="white" stop-opacity="0.3"/>
<stop offset="1" stop-color="white" stop-opacity="0"/>
</radialGradient>
<linearGradient id="paint5_linear_105_5" x1="80.6171" y1="51" x2="762.357" y2="345.322" gradientUnits="userSpaceOnUse">
<stop stop-color="#ABABAB"/>
<stop offset="0.3125" stop-color="white"/>
<stop offset="0.630208" stop-color="#BDBDBD"/>
<stop offset="1" stop-color="#5E5E5E"/>
</linearGradient>
<linearGradient id="paint6_linear_105_5" x1="0" y1="0" x2="73.8166" y2="54.5219" gradientUnits="userSpaceOnUse">
<stop stop-color="#ABABAB"/>
<stop offset="0.3125" stop-color="white"/>
<stop offset="0.630208" stop-color="#BDBDBD"/>
<stop offset="1" stop-color="#5E5E5E"/>
</linearGradient>
<linearGradient id="paint7_linear_105_5" x1="197.063" y1="218.463" x2="256.388" y2="300.693" gradientUnits="userSpaceOnUse">
<stop stop-color="#7D7D7D"/>
<stop offset="0.494792" stop-color="white"/>
<stop offset="1" stop-color="#1C1C1C"/>
</linearGradient>
</defs>
</svg>
