<svg width="111" height="41" viewBox="0 0 111 41" fill="none" xmlns="http://www.w3.org/2000/svg">
<path d="M49.832 27.24C49.3733 27.24 48.9146 27.208 48.456 27.144C48.008 27.08 47.5973 26.9733 47.224 26.824C46.8506 26.664 46.552 26.44 46.328 26.152C46.1146 25.864 46.008 25.4853 46.008 25.016V15.96H48.6V20.408L48.136 19.576C48.3173 19.3307 48.5573 19.1387 48.856 19C49.1546 18.8613 49.4586 18.7653 49.768 18.712C50.0773 18.6587 50.328 18.632 50.52 18.632C51.704 18.632 52.6106 18.9947 53.24 19.72C53.8693 20.4347 54.184 21.5013 54.184 22.92C54.184 23.7093 54.0826 24.3813 53.88 24.936C53.6773 25.4907 53.384 25.9387 53 26.28C52.616 26.6107 52.1573 26.8507 51.624 27C51.0906 27.16 50.4933 27.24 49.832 27.24ZM49.816 25.048C50.2213 25.048 50.552 24.9733 50.808 24.824C51.0746 24.664 51.2666 24.44 51.384 24.152C51.5013 23.8533 51.56 23.5013 51.56 23.096C51.56 22.4773 51.48 21.9973 51.32 21.656C51.1706 21.3147 50.9626 21.0747 50.696 20.936C50.44 20.7867 50.1466 20.712 49.816 20.712C49.6346 20.712 49.432 20.7387 49.208 20.792C48.984 20.8347 48.7813 20.904 48.6 21V24.328C48.6 24.4987 48.648 24.6427 48.744 24.76C48.8506 24.8667 48.9946 24.9413 49.176 24.984C49.3573 25.0267 49.5706 25.048 49.816 25.048Z" fill="white"/>
<path d="M58.9423 27.24C58.4197 27.24 57.9343 27.192 57.4863 27.096C57.049 27.0107 56.665 26.8613 56.3343 26.648C56.0037 26.4347 55.7477 26.1413 55.5663 25.768C55.385 25.3947 55.2943 24.9413 55.2943 24.408C55.2943 23.928 55.3903 23.5067 55.5823 23.144C55.785 22.7813 56.0997 22.4933 56.5263 22.28C56.953 22.0667 57.497 21.96 58.1583 21.96C58.5103 21.96 58.857 22.0027 59.1983 22.088C59.5397 22.1627 59.849 22.2693 60.1263 22.408C60.4037 22.536 60.617 22.68 60.7663 22.84L60.8463 24.024C60.633 23.9067 60.393 23.816 60.1263 23.752C59.8597 23.6773 59.5823 23.64 59.2943 23.64C58.8037 23.64 58.4463 23.7093 58.2223 23.848C58.009 23.976 57.9023 24.1947 57.9023 24.504C57.9023 24.664 57.9503 24.8133 58.0463 24.952C58.153 25.0907 58.2863 25.2027 58.4463 25.288C58.617 25.3733 58.7983 25.416 58.9903 25.416C59.5023 25.416 59.849 25.384 60.0303 25.32C60.2223 25.256 60.3183 25.1227 60.3183 24.92V22.104C60.3183 21.6347 60.1637 21.2987 59.8543 21.096C59.5557 20.8827 59.129 20.776 58.5743 20.776C58.0943 20.776 57.6143 20.8667 57.1343 21.048C56.6543 21.2293 56.2757 21.432 55.9983 21.656V19.336C56.2543 19.1653 56.6757 19.0053 57.2623 18.856C57.8597 18.7067 58.5423 18.632 59.3103 18.632C59.5343 18.632 59.801 18.6533 60.1103 18.696C60.4303 18.728 60.7503 18.7973 61.0703 18.904C61.401 19.0107 61.705 19.1707 61.9823 19.384C62.2703 19.5973 62.4997 19.8747 62.6703 20.216C62.841 20.5573 62.9263 20.9893 62.9263 21.512L62.9103 25.32C62.9103 25.7573 62.7557 26.12 62.4463 26.408C62.1477 26.696 61.705 26.904 61.1183 27.032C60.5317 27.1707 59.8063 27.24 58.9423 27.24Z" fill="white"/>
<path d="M64.9455 19.576C65.1375 19.4693 65.4041 19.3627 65.7455 19.256C66.0868 19.1493 66.4655 19.0533 66.8815 18.968C67.2975 18.872 67.7188 18.7973 68.1455 18.744C68.5721 18.68 68.9615 18.648 69.3135 18.648C70.0281 18.648 70.6468 18.7333 71.1695 18.904C71.6921 19.0747 72.0921 19.368 72.3695 19.784C72.6575 20.2 72.8015 20.7707 72.8015 21.496V27H70.1615V22.104C70.1615 21.8907 70.1295 21.704 70.0655 21.544C70.0121 21.3733 69.9268 21.2347 69.8095 21.128C69.7028 21.0213 69.5535 20.9413 69.3615 20.888C69.1801 20.8347 68.9615 20.808 68.7055 20.808C68.4815 20.808 68.2575 20.84 68.0335 20.904C67.8201 20.9573 67.6708 21.016 67.5855 21.08V27H64.9455V19.576Z" fill="white"/>
<path d="M76.8845 22.6L79.7485 18.888H82.9645L78.4845 23.752L76.8845 22.6ZM77.4445 27H74.8205V15.832H77.4765L77.4445 27ZM78.9645 21.384L83.0765 27H79.7485L77.0605 23.192L78.9645 21.384Z" fill="white"/>
<path d="M84.3487 27V24.616H86.8127V27H84.3487Z" fill="white"/>
<path d="M96.4078 21.496V27H93.7518V22.104C93.7518 21.8907 93.7252 21.704 93.6718 21.544C93.6185 21.3733 93.5332 21.2347 93.4158 21.128C93.2985 21.0213 93.1492 20.9413 92.9678 20.888C92.7865 20.8347 92.5678 20.808 92.3118 20.808C92.0878 20.808 91.8852 20.84 91.7038 20.904C91.5332 20.9573 91.4052 21.016 91.3198 21.08V27H88.6798V19.576C88.8718 19.4693 89.1385 19.3627 89.4798 19.256C89.8212 19.1493 90.1998 19.0533 90.6158 18.968C91.0318 18.872 91.4532 18.7973 91.8798 18.744C92.3065 18.68 92.6958 18.648 93.0478 18.648C93.7625 18.648 94.3705 18.7333 94.8718 18.904C95.3732 19.0747 95.7519 19.368 96.0079 19.784C96.2745 20.2 96.4078 20.7707 96.4078 21.496ZM93.7518 20.168C94.0825 19.8693 94.4932 19.608 94.9838 19.384C95.4745 19.16 95.9919 18.984 96.5359 18.856C97.0905 18.7173 97.6025 18.648 98.0718 18.648C98.7865 18.648 99.3945 18.7333 99.8959 18.904C100.397 19.0747 100.776 19.368 101.032 19.784C101.299 20.2 101.432 20.7707 101.432 21.496V27H98.7758V22.104C98.7758 21.8907 98.7492 21.704 98.6958 21.544C98.6425 21.3733 98.5572 21.2347 98.4398 21.128C98.3225 21.0213 98.1732 20.9413 97.9918 20.888C97.8105 20.8347 97.5918 20.808 97.3358 20.808C97.1118 20.808 96.9092 20.84 96.7278 20.904C96.5572 20.968 96.4292 21.0427 96.3438 21.128L93.7518 20.168Z" fill="white"/>
<path d="M107.189 27.24C106.357 27.24 105.621 27.0747 104.981 26.744C104.352 26.4027 103.861 25.9227 103.509 25.304C103.157 24.6747 102.981 23.9333 102.981 23.08C102.981 21.6613 103.339 20.5573 104.053 19.768C104.768 18.9787 105.797 18.584 107.141 18.584C108.037 18.584 108.763 18.776 109.317 19.16C109.872 19.544 110.283 20.1147 110.549 20.872C110.816 21.6293 110.944 22.5573 110.933 23.656H104.821L104.501 22.04H108.693L108.373 22.904C108.363 22.04 108.251 21.4373 108.037 21.096C107.835 20.744 107.493 20.568 107.013 20.568C106.757 20.568 106.523 20.6427 106.309 20.792C106.096 20.9307 105.925 21.16 105.797 21.48C105.68 21.8 105.621 22.232 105.621 22.776C105.621 23.512 105.792 24.0773 106.133 24.472C106.485 24.856 107.061 25.048 107.861 25.048C108.149 25.048 108.437 25.016 108.725 24.952C109.013 24.8773 109.28 24.792 109.525 24.696C109.771 24.6 109.979 24.5253 110.149 24.472V26.712C109.776 26.8507 109.349 26.9733 108.869 27.08C108.4 27.1867 107.84 27.24 107.189 27.24Z" fill="white"/>
<path d="M5.85061 2.89778C6.27943 1.29738 7.92444 0.347634 9.52484 0.77646L25.9456 5.17638C27.546 5.60521 28.4957 7.25022 28.0669 8.85062L23.1493 27.2032C22.7205 28.8036 21.0755 29.7534 19.4751 29.3245L3.05437 24.9246C1.45397 24.4958 0.50422 22.8508 0.933045 21.2504L5.85061 2.89778Z" fill="#FFC300"/>
<path d="M10.694 14.4483C11.1228 12.8479 12.7678 11.8981 14.3682 12.3269L30.789 16.7269C32.3894 17.1557 33.3391 18.8007 32.9103 20.4011L27.9927 38.7537C27.5639 40.3541 25.9189 41.3038 24.3185 40.875L7.89775 36.4751C6.29735 36.0463 5.3476 34.4012 5.77643 32.8008L10.694 14.4483Z" fill="white"/>
<path d="M27 32C27 34.7614 24.7614 37 22 37C19.2385 37 17 34.7614 17 32C17 29.2386 19.2385 27 22 27C24.7614 27 27 29.2386 27 32Z" fill="#FFC300"/>
</svg>
